<svg width="1440" height="443" viewBox="0 0 1440 443" fill="none" xmlns="http://www.w3.org/2000/svg">
<path d="M1440 443H0V23H1440V443Z" fill="#316778"/>
<path d="M394 26.7963C252.615 6.50688 73.6929 -6.54594 0 4.79624V442.796H1440V16.7963C1352 -11.2037 1192 0.79628 1152 16.7963C1047.13 58.7453 911.291 92.7963 784 92.7963C610 92.7963 591.151 55.0884 394 26.7963Z" fill="#CBBA83"/>
<path d="M396.349 68.5901C254.963 48.3007 73.6929 57.2479 0 68.5901V442.882H1440V58.8822C1356 69.8822 1262.11 38.766 1220 26.8822C1111.29 -3.79607 947 10.8822 830.539 42.5698C744.232 62.5854 593.5 96.8822 396.349 68.5901Z" fill="#FFECB3"/>
<path d="M312 43C169.322 49.6592 144 103 0 117.94V442.94H1440V43C1364 72.0001 1256 43 1152 43C1007.51 43 944 99.9398 804 117.94C632 117.94 520 33.2921 312 43Z" fill="#FFFFE5"/>
</svg>
